<svg xmlns="http://www.w3.org/2000/svg" xmlns:xlink="http://www.w3.org/1999/xlink" viewBox="0 0 124.888 39.515"><defs><style>.cls-1{fill:#fff;}.cls-2{fill:url(#Nepojmenovaný_přechod_2);}.cls-3{fill:url(#Nepojmenovaný_přechod_2-2);}.cls-4{fill:url(#linear-gradient);}.cls-5{fill:url(#linear-gradient-2);}.cls-6{fill:url(#linear-gradient-3);}.cls-7{fill:url(#linear-gradient-4);}</style><linearGradient id="Nepojmenovaný_přechod_2" x1="112.795" y1="16.293" x2="124.888" y2="16.293" gradientUnits="userSpaceOnUse"><stop offset="0" stop-color="#f9e360"/><stop offset="0.55" stop-color="#f09d4b"/><stop offset="1" stop-color="#de4030"/></linearGradient><linearGradient id="Nepojmenovaný_přechod_2-2" x1="0" y1="19.758" x2="44.672" y2="19.758" xlink:href="#Nepojmenovaný_přechod_2"/><linearGradient id="linear-gradient" x1="23.539" y1="35.829" x2="31.82" y2="29.683" gradientUnits="userSpaceOnUse"><stop offset="0"/><stop offset="1" stop-opacity="0"/></linearGradient><linearGradient id="linear-gradient-2" x1="24.848" y1="35.523" x2="16.923" y2="37.205" xlink:href="#linear-gradient"/><linearGradient id="linear-gradient-3" x1="11.008" y1="27.73" x2="5.981" y2="24.773" xlink:href="#linear-gradient"/><linearGradient id="linear-gradient-4" x1="9.115" y1="28.48" x2="23.537" y2="22.994" xlink:href="#linear-gradient"/></defs><g id="Layer_2" data-name="Layer 2"><g id="Layer_1-2" data-name="Layer 1"><path class="cls-1" d="M64.167,7.726a4.2,4.2,0,0,1-.117.887H59.173V22.207a4.881,4.881,0,0,1-.981.117,4.79,4.79,0,0,1-.956-.117V8.613h-4.9a4.2,4.2,0,0,1-.117-.887,4.209,4.209,0,0,1,.117-.887H64.05A4.209,4.209,0,0,1,64.167,7.726Z"/><path class="cls-1" d="M71.728,10.97a2.519,2.519,0,0,1-.093.893,2.223,2.223,0,0,1-.385.788,7.968,7.968,0,0,0-2.054-.245,4.6,4.6,0,0,0-2.462.583v9.2a4.507,4.507,0,0,1-.98.094,4.816,4.816,0,0,1-.98-.094V12.125a6.454,6.454,0,0,1,1.989-1.085,7.494,7.494,0,0,1,2.561-.443A7.281,7.281,0,0,1,71.728,10.97Z"/><path class="cls-1" d="M75.322,8.963a1.359,1.359,0,0,1-.986-.391,1.289,1.289,0,0,1-.4-.962,1.316,1.316,0,0,1,.4-.975,1.358,1.358,0,0,1,.992-.391,1.269,1.269,0,0,1,.939.4,1.4,1.4,0,0,1,.006,1.931A1.275,1.275,0,0,1,75.322,8.963Zm0,13.315a4.816,4.816,0,0,1-.98-.094V10.947a4.888,4.888,0,0,1,.98-.094,4.445,4.445,0,0,1,.957.094V22.184A4.383,4.383,0,0,1,75.322,22.278Z"/><path class="cls-1" d="M85,10.6a6.636,6.636,0,0,1,3.034.671,5.011,5.011,0,0,1,2.112,2.024,6.313,6.313,0,0,1,.782,3.209,6.522,6.522,0,0,1-.49,2.562,5.246,5.246,0,0,1-1.307,1.9,6,6,0,0,1-4.014,1.54,8.057,8.057,0,0,1-2.87-.455V26.63a4.461,4.461,0,0,1-.958.094,4.718,4.718,0,0,1-.945-.094L80.3,12.312a7.341,7.341,0,0,1,2.083-1.219A6.963,6.963,0,0,1,85,10.6ZM85,20.7a3.8,3.8,0,0,0,2.888-1.132A4.261,4.261,0,0,0,88.962,16.5a4.041,4.041,0,0,0-1.091-2.964A3.854,3.854,0,0,0,85,12.429a5.139,5.139,0,0,0-2.777.77l.024,6.885A5.466,5.466,0,0,0,85,20.7Z"/><path class="cls-1" d="M95.264,22.278a4.693,4.693,0,0,1-.957-.094V6.454a4.766,4.766,0,0,1,.957-.093,4.575,4.575,0,0,1,.98.093v15.73A4.507,4.507,0,0,1,95.264,22.278Z"/><path class="cls-1" d="M110.1,15.591A14,14,0,0,1,110,17.12h-8.366a3.968,3.968,0,0,0,1.108,2.6,3.382,3.382,0,0,0,2.521,1.027,6.567,6.567,0,0,0,1.2-.1,3.559,3.559,0,0,0,.963-.314,6.7,6.7,0,0,0,.636-.356c.139-.093.322-.226.548-.4a1.906,1.906,0,0,1,.659.554,2.034,2.034,0,0,1,.391.753,6.64,6.64,0,0,1-4.422,1.634,5.369,5.369,0,0,1-4.055-1.622A5.955,5.955,0,0,1,99.628,16.6,6.1,6.1,0,0,1,101.2,12.3a5.065,5.065,0,0,1,3.88-1.7,4.9,4.9,0,0,1,3.6,1.406A4.835,4.835,0,0,1,110.1,15.591Zm-8.437-.07h6.43a3.893,3.893,0,0,0-.17-1.155,3.52,3.52,0,0,0-.507-1.021,2.347,2.347,0,0,0-.94-.753,3.275,3.275,0,0,0-1.394-.28,3.178,3.178,0,0,0-2.334.916A3.758,3.758,0,0,0,101.658,15.521Z"/><path class="cls-2" d="M118.554,10.044a4.746,4.746,0,0,1,3,.884,2.647,2.647,0,0,1,1.136,2.151,3.839,3.839,0,0,1-1.637,2.88,11.376,11.376,0,0,1-4.839,2.091,8.622,8.622,0,0,0,3.381-2.211,4,4,0,0,0,1.088-2.593,2.744,2.744,0,0,0-.766-1.971,2.505,2.505,0,0,0-1.888-.8,2.729,2.729,0,0,0-2.389,1.159,5.024,5.024,0,0,0-.813,2.952,8.745,8.745,0,0,0,1.506,4.91,4.423,4.423,0,0,0,3.776,2.283,4.15,4.15,0,0,0,1.959-.49,4.922,4.922,0,0,0,1.506-1.171,8.139,8.139,0,0,0,.92-1.314,3.14,3.14,0,0,0,.4-1.016,5.042,5.042,0,0,1-1.877,3.286,5.793,5.793,0,0,1-3.931,1.469,5.893,5.893,0,0,1-4.648-1.84,6.454,6.454,0,0,1-1.637-4.445,6.022,6.022,0,0,1,1.708-4.6A5.7,5.7,0,0,1,118.554,10.044Z"/><path class="cls-1" d="M56.385,32.489a.621.621,0,0,1,.035.207.751.751,0,0,1-.035.229H53.991V29.159h2.335a.7.7,0,0,1,.037.228.663.663,0,0,1-.037.213H54.461v1.165h1.661a.7.7,0,0,1,0,.436H54.461v1.288Z"/><path class="cls-1" d="M60.086,29.113a.741.741,0,0,1,.286.057,19.612,19.612,0,0,1-1.418,3.744.969.969,0,0,1-.246.028,1.013,1.013,0,0,1-.24-.028,20.166,20.166,0,0,1-1.426-3.744.887.887,0,0,1,.3-.057.828.828,0,0,1,.2.023,18.378,18.378,0,0,0,1.186,3.3,16.35,16.35,0,0,0,1.143-3.3A.9.9,0,0,1,60.086,29.113Z"/><path class="cls-1" d="M62.824,33.013a1.85,1.85,0,0,1-.968-.256,1.774,1.774,0,0,1-.67-.709,2.237,2.237,0,0,1,0-2.016,1.81,1.81,0,0,1,.672-.716,1.829,1.829,0,0,1,.968-.263,1.889,1.889,0,0,1,.753.15,1.752,1.752,0,0,1,.6.412,1.891,1.891,0,0,1,.386.63,2.2,2.2,0,0,1,.141.792,2.106,2.106,0,0,1-.239,1,1.822,1.822,0,0,1-1.637.977Zm-1-.87a1.374,1.374,0,0,0,2,0,1.608,1.608,0,0,0,.38-1.106,1.631,1.631,0,0,0-.378-1.114,1.379,1.379,0,0,0-2,0,1.622,1.622,0,0,0-.38,1.114A1.6,1.6,0,0,0,61.825,32.143Z"/><path class="cls-1" d="M67,30.877l1.681,2.014a1.448,1.448,0,0,1-.387.045,2.163,2.163,0,0,1-.218-.011l-1.435-1.742c-.07.056-.212.165-.423.327v1.415a1.236,1.236,0,0,1-.247.029,1.177,1.177,0,0,1-.229-.029V29.159a1.1,1.1,0,0,1,.229-.029,1.167,1.167,0,0,1,.247.029v1.807a8.37,8.37,0,0,0,.946-.831,8.152,8.152,0,0,0,.783-.988,1.535,1.535,0,0,1,.23-.017,1.314,1.314,0,0,1,.312.034,9.959,9.959,0,0,1-.708.936A7.446,7.446,0,0,1,67,30.877Z"/><path class="cls-1" d="M71.842,32.489a.621.621,0,0,1,.035.207.751.751,0,0,1-.035.229H69.448V29.159h2.335a.7.7,0,0,1,.037.228.663.663,0,0,1-.037.213H69.918v1.165h1.661a.7.7,0,0,1,0,.436H69.918v1.288Z"/><path class="cls-1" d="M73.324,32.893a.37.37,0,0,1-.632-.26.365.365,0,0,1,.108-.265.365.365,0,0,1,.524,0,.364.364,0,0,1,.107.265A.354.354,0,0,1,73.324,32.893Z"/><path class="cls-1" d="M78.237,32.489a.621.621,0,0,1,.035.207.751.751,0,0,1-.035.229H75.843V29.159h2.334a.677.677,0,0,1,.037.228.637.637,0,0,1-.037.213H76.313v1.165h1.661a.716.716,0,0,1,0,.436H76.313v1.288Z"/><path class="cls-1" d="M82.032,29.13a1.016,1.016,0,0,1,.229.029v3.732a1.507,1.507,0,0,1-.418.051l-2-2.827-.095-.189v3a.832.832,0,0,1-.224.029.851.851,0,0,1-.228-.029V29.207a.74.74,0,0,1,.2-.066.568.568,0,0,1,.225,0l1.994,2.793.1.169-.006-.258V29.159A1.232,1.232,0,0,1,82.032,29.13Z"/><path class="cls-1" d="M85.242,30.977h1.275v1.747a2.731,2.731,0,0,1-1.286.3,2.054,2.054,0,0,1-.752-.137,1.814,1.814,0,0,1-.611-.385,1.746,1.746,0,0,1-.411-.623,2.318,2.318,0,0,1,.005-1.659,1.825,1.825,0,0,1,.42-.634,1.874,1.874,0,0,1,.608-.39,1.912,1.912,0,0,1,.724-.139,2.106,2.106,0,0,1,1.272.341.539.539,0,0,1-.253.4,1.815,1.815,0,0,0-.461-.216,1.954,1.954,0,0,0-.558-.07,1.4,1.4,0,0,0-.985.4,1.363,1.363,0,0,0-.31.488,1.813,1.813,0,0,0-.115.655,1.607,1.607,0,0,0,.37,1.113,1.362,1.362,0,0,0,1.068.411,2.154,2.154,0,0,0,.794-.129V31.43h-.794a.838.838,0,0,1-.028-.224A.86.86,0,0,1,85.242,30.977Z"/><path class="cls-1" d="M89.106,29.159l1.426,3.726a.571.571,0,0,1-.28.063,1.008,1.008,0,0,1-.23-.023l-.386-1.051H88.081l-.375,1.051a1,1,0,0,1-.212.023.606.606,0,0,1-.281-.063l1.4-3.726a.785.785,0,0,1,.252-.035A.763.763,0,0,1,89.106,29.159Zm-.879,2.3h1.254l-.538-1.455-.1-.315-.1.315Z"/><path class="cls-1" d="M92.992,30.977h1.274v1.747a2.725,2.725,0,0,1-1.286.3,2.053,2.053,0,0,1-.751-.137,1.814,1.814,0,0,1-.611-.385,1.762,1.762,0,0,1-.412-.623,2.2,2.2,0,0,1-.15-.826,2.172,2.172,0,0,1,.156-.833,1.811,1.811,0,0,1,.42-.634,1.874,1.874,0,0,1,.608-.39,1.912,1.912,0,0,1,.724-.139,2.1,2.1,0,0,1,1.271.341.535.535,0,0,1-.252.4,1.831,1.831,0,0,0-.461-.216,1.958,1.958,0,0,0-.558-.07,1.4,1.4,0,0,0-.986.4,1.361,1.361,0,0,0-.309.488,1.813,1.813,0,0,0-.115.655,1.6,1.6,0,0,0,.37,1.113,1.361,1.361,0,0,0,1.068.411,2.145,2.145,0,0,0,.793-.129V31.43h-.793a.838.838,0,0,1-.028-.224A.86.86,0,0,1,92.992,30.977Z"/><path class="cls-1" d="M97.778,32.489a.621.621,0,0,1,.035.207.751.751,0,0,1-.035.229H95.384V29.159h2.334a.677.677,0,0,1,.037.228.637.637,0,0,1-.037.213H95.854v1.165h1.661a.716.716,0,0,1,0,.436H95.854v1.288Z"/><path class="cls-1" d="M99.26,32.893a.37.37,0,0,1-.632-.26.365.365,0,0,1,.108-.265.365.365,0,0,1,.524,0,.364.364,0,0,1,.107.265A.354.354,0,0,1,99.26,32.893Z"/><path class="cls-1" d="M104.173,32.489a.621.621,0,0,1,.035.207.751.751,0,0,1-.035.229h-2.394V29.159h2.334a.677.677,0,0,1,.037.228.637.637,0,0,1-.037.213h-1.864v1.165h1.661a.716.716,0,0,1,0,.436h-1.661v1.288Z"/><path class="cls-1" d="M107.427,32.5a.669.669,0,0,1,.031.2.908.908,0,0,1-.031.229h-2.194V29.159a1.088,1.088,0,0,1,.228-.029,1.167,1.167,0,0,1,.247.029V32.5Z"/><path class="cls-1" d="M110.711,32.489a.621.621,0,0,1,.035.207.751.751,0,0,1-.035.229h-2.394V29.159h2.334a.678.678,0,0,1,.038.228.638.638,0,0,1-.038.213h-1.864v1.165h1.661a.716.716,0,0,1,0,.436h-1.661v1.288Z"/><path class="cls-1" d="M114.411,29.113a.737.737,0,0,1,.286.057,19.673,19.673,0,0,1-1.417,3.744.983.983,0,0,1-.247.028,1.013,1.013,0,0,1-.24-.028,20.166,20.166,0,0,1-1.426-3.744.888.888,0,0,1,.306-.057.825.825,0,0,1,.2.023,18.378,18.378,0,0,0,1.186,3.3,16.289,16.289,0,0,0,1.143-3.3A.9.9,0,0,1,114.411,29.113Z"/><path class="cls-1" d="M116.837,29.159l1.426,3.726a.571.571,0,0,1-.28.063.992.992,0,0,1-.229-.023l-.387-1.051h-1.555l-.375,1.051a1,1,0,0,1-.212.023.609.609,0,0,1-.281-.063l1.395-3.726a.785.785,0,0,1,.252-.035A.763.763,0,0,1,116.837,29.159Zm-.879,2.3h1.254l-.538-1.455-.1-.315-.1.315Z"/><path class="cls-1" d="M121.259,29.376a1.048,1.048,0,0,1-.029.218h-1.2V32.93a1.144,1.144,0,0,1-.241.029,1.131,1.131,0,0,1-.235-.029V29.594h-1.2a.83.83,0,0,1,0-.435h2.875A1.04,1.04,0,0,1,121.259,29.376Z"/><path class="cls-1" d="M124.506,32.489a.621.621,0,0,1,.035.207.751.751,0,0,1-.035.229h-2.394V29.159h2.334a.678.678,0,0,1,.038.228.638.638,0,0,1-.038.213h-1.864v1.165h1.661a.7.7,0,0,1,0,.436h-1.661v1.288Z"/><path class="cls-3" d="M31.966,39.515a13.8,13.8,0,0,1-2.929-.31,8.4,8.4,0,0,1-4.095-2.239,15.489,15.489,0,0,1-9.7,2.149,6.986,6.986,0,0,1-6.026-6.521,19.009,19.009,0,0,1,.032-4.073,15.482,15.482,0,0,1-4.524-1.989c-3.911-2.5-5.5-7.443-4.36-13.575C1.172,8.592,5.71,2.347,10.569.523a6.66,6.66,0,0,1,6.7.856A5.514,5.514,0,0,1,19.49,5.42c.183,3.008-2.108,5.571-2.815,6.285a9.359,9.359,0,0,1-8.692,2.731,1.974,1.974,0,0,1,.631-3.9,5.454,5.454,0,0,0,5.254-1.61c.712-.72,1.747-2.183,1.681-3.268a1.57,1.57,0,0,0-.726-1.184,2.671,2.671,0,0,0-2.866-.256c-3.388,1.272-7.136,6.349-7.714,9.459-.831,4.468.118,7.94,2.6,9.525a11.535,11.535,0,0,0,3.218,1.441,34.19,34.19,0,0,1,5.145-9.864C17.706,11.31,21.2,7.2,26.055,6.236a6.242,6.242,0,0,1,7.419,4.689c.586,2.853-.869,6.293-3.538,8.366q-.925.718-1.831,1.436a62.714,62.714,0,0,1-9.921,6.818,12.316,12.316,0,0,1-5.007,1.37,15.052,15.052,0,0,0-.035,3.284,3.066,3.066,0,0,0,2.693,3.013,11.466,11.466,0,0,0,6.906-1.549c-1.4-3.693.721-8.178,3.324-10.825,1.395-1.419,3.731-3.794,7.084-3.009a4.514,4.514,0,0,1,2.916,2.286,5.168,5.168,0,0,1,.419,4.11c-1.324,3.848-5,6.421-7.956,8.489l-.064.045a4.3,4.3,0,0,0,1.411.587,10.087,10.087,0,0,0,8.3-1.871,6.426,6.426,0,0,0,2.544-5.068,1.975,1.975,0,1,1,3.949,0,10.341,10.341,0,0,1-4.015,8.142A13.985,13.985,0,0,1,31.966,39.515Zm-.111-15.889c-.767,0-1.57.552-2.975,1.981-1.546,1.572-2.794,4.021-2.621,5.875l0,0c2.486-1.74,5.58-3.9,6.487-6.539a1.263,1.263,0,0,0-.142-.914.685.685,0,0,0-.358-.352A1.736,1.736,0,0,0,31.855,23.626Zm-4.48-13.573a2.822,2.822,0,0,0-.549.055c-3.547.706-6.5,4.321-8.413,6.979a31.89,31.89,0,0,0-4.242,7.722,8.3,8.3,0,0,0,2.2-.771,58.773,58.773,0,0,0,9.291-6.412c.613-.483,1.229-.969,1.854-1.454,1.454-1.129,2.373-3.085,2.092-4.453A2.294,2.294,0,0,0,27.375,10.053Z"/><path class="cls-4" d="M33.715,27.669a1.962,1.962,0,0,0-2.774.076,30.715,30.715,0,0,1-4.669,3.744l-.022.015a2.947,2.947,0,0,0,.2.844,5.4,5.4,0,0,0,1.988,2.411l.079-.056a33.654,33.654,0,0,0,5.27-4.261A1.961,1.961,0,0,0,33.715,27.669Z"/><path class="cls-5" d="M22.831,33.853c-.026-.061-.048-.124-.071-.186a11.492,11.492,0,0,1-6.927,1.557,1.962,1.962,0,0,0-.592,3.879,11.893,11.893,0,0,0,1.794.135,16.75,16.75,0,0,0,7.909-2.288A9.511,9.511,0,0,1,22.831,33.853Z"/><path class="cls-6" d="M10.069,24.674a11.289,11.289,0,0,1-3.22-1.453,1.962,1.962,0,0,0-2.132,3.294,15.219,15.219,0,0,0,4.542,2.01A21.672,21.672,0,0,1,10.069,24.674Z"/><path class="cls-7" d="M22.972,22.229a1.961,1.961,0,0,0-2.726-.514,37.127,37.127,0,0,1-3.871,2.334,8.431,8.431,0,0,1-2.224.781,18.578,18.578,0,0,0-.984,4.083,12.39,12.39,0,0,0,5.011-1.379,40.963,40.963,0,0,0,4.28-2.579A1.961,1.961,0,0,0,22.972,22.229Z"/></g></g></svg>