<svg width="1280" height="828" viewBox="0 0 1280 828" fill="none" xmlns="http://www.w3.org/2000/svg">
<path d="M400 200H561.569C567.075 200 572.528 201.085 577.615 203.192C582.703 205.299 587.325 208.388 591.219 212.281C595.112 216.175 598.201 220.797 600.308 225.885C602.415 230.972 603.5 236.425 603.5 241.931V452" stroke="white" stroke-width="0.25" stroke-miterlimit="10"/>
<path d="M880 200H719.361C708.241 200 697.575 204.418 689.712 212.282C681.849 220.145 677.431 230.81 677.431 241.931V492" stroke="white" stroke-width="0.25" stroke-miterlimit="10"/>
<path d="M400 439.875H880" stroke="white" stroke-width="0.25" stroke-miterlimit="10"/>
<path d="M629.5 628V486" stroke="white" stroke-width="0.25" stroke-miterlimit="10"/>
<path d="M648.5 542.5C707.318 542.5 755 494.818 755 436C755 377.182 707.318 329.5 648.5 329.5C589.682 329.5 542 377.182 542 436C542 494.818 589.682 542.5 648.5 542.5Z" fill="#000011" stroke="url(#paint0_linear_39_19)" stroke-width="1.054" stroke-miterlimit="10"/>
<path d="M676.387 492.61C673.433 492.614 670.488 492.301 667.601 491.679C662.954 490.645 658.695 488.317 655.316 484.963C646.698 489.635 636.749 493.016 626.216 491.409C618.305 490.2 609.402 484.427 608.139 471.847C607.736 467.783 607.769 463.688 608.239 459.631C603.426 458.38 598.844 456.366 594.668 453.666C582.938 446.18 578.168 431.337 581.591 412.944C584.025 399.85 597.637 381.118 612.211 375.644C619.583 372.877 626.723 373.789 632.311 378.21C634.23 379.631 635.818 381.45 636.967 383.542C638.116 385.635 638.798 387.952 638.967 390.333C639.516 399.355 632.642 407.044 630.522 409.186C623.398 416.386 614.873 419.061 604.45 417.376C603.676 417.259 602.933 416.989 602.264 416.583C601.595 416.176 601.013 415.641 600.552 415.009C600.09 414.376 599.759 413.658 599.577 412.897C599.395 412.136 599.366 411.346 599.491 410.573C599.616 409.8 599.894 409.06 600.307 408.395C600.72 407.73 601.26 407.153 601.898 406.699C602.535 406.244 603.256 405.92 604.019 405.746C604.782 405.571 605.572 405.55 606.344 405.683C612.972 406.759 617.69 405.313 622.103 400.854C624.238 398.696 627.342 394.307 627.144 391.054C627.089 390.159 626.792 388.947 624.966 387.503C623.495 386.341 621.005 384.995 616.366 386.735C606.205 390.549 594.966 405.777 593.229 415.106C590.737 428.506 593.582 438.923 601.029 443.678C604.006 445.605 607.26 447.063 610.68 448.002C613.58 438.519 618.703 428.702 626.114 418.411C633.607 408.002 644.077 395.68 658.653 392.78C663.467 391.724 668.503 392.609 672.668 395.242C676.834 397.875 679.794 402.045 680.905 406.846C682.662 415.405 678.299 425.724 670.292 431.946C668.441 433.383 666.61 434.819 664.799 436.254C655.626 443.484 646.14 450.961 635.042 456.705C630.384 459.126 625.264 460.526 620.023 460.814C619.628 464.085 619.592 467.389 619.916 470.667C620.608 477.56 625.275 479.286 627.995 479.702C635.03 480.776 642.19 478.454 648.712 475.057C644.521 463.978 650.872 450.524 658.681 442.586C662.866 438.33 669.874 431.206 679.93 433.559C681.79 434.018 683.531 434.867 685.039 436.049C686.547 437.231 687.786 438.72 688.676 440.417C689.723 442.275 690.375 444.328 690.592 446.45C690.808 448.571 690.585 450.714 689.936 452.745C685.962 464.289 674.936 472.007 666.071 478.208L665.876 478.345C667.171 479.18 668.605 479.776 670.11 480.105C674.42 481.042 678.882 481.025 683.185 480.055C687.488 479.086 691.526 477.187 695.018 474.493C697.368 472.712 699.279 470.416 700.602 467.781C701.925 465.145 702.626 462.242 702.651 459.293C702.671 457.736 703.304 456.249 704.413 455.155C705.521 454.06 707.016 453.447 708.573 453.447C710.131 453.447 711.626 454.06 712.734 455.155C713.843 456.249 714.476 457.736 714.496 459.293C714.479 464.012 713.385 468.665 711.298 472.898C709.211 477.13 706.186 480.831 702.453 483.718C695.012 489.531 685.829 492.664 676.387 492.61ZM676.052 444.949C673.752 444.949 671.345 446.604 667.129 450.89C662.491 455.606 658.748 462.952 659.268 468.513L659.284 468.502C666.74 463.284 676.02 456.79 678.74 448.889C678.951 447.954 678.799 446.973 678.315 446.146C678.103 445.671 677.719 445.294 677.24 445.091C676.851 444.998 676.452 444.95 676.052 444.949ZM662.615 404.232C662.062 404.234 661.51 404.29 660.968 404.4C650.33 406.517 641.468 417.361 635.731 425.334C630.438 432.429 626.156 440.224 623.007 448.497C625.303 448.039 627.523 447.26 629.602 446.182C639.702 440.958 648.331 434.154 657.47 426.949C659.309 425.501 661.163 424.047 663.032 422.588C667.393 419.202 670.149 413.335 669.306 409.231C668.893 407.779 668.015 406.503 666.806 405.6C665.597 404.697 664.124 404.216 662.615 404.232Z" fill="url(#paint1_linear_39_19)"/>
<path d="M681.632 457.075C680.499 456.002 678.985 455.423 677.425 455.466C675.865 455.509 674.386 456.17 673.313 457.303C669.313 461.531 663.996 465.251 659.306 468.533L659.241 468.578C659.319 469.448 659.525 470.301 659.852 471.111C661.083 474.056 663.158 476.572 665.815 478.341L666.054 478.176C671.202 474.576 677.038 470.489 681.86 465.394C682.933 464.261 683.511 462.747 683.469 461.187C683.426 459.627 682.765 458.148 681.632 457.075Z" fill="url(#paint2_linear_39_19)"/>
<path d="M648.983 475.625C648.907 475.441 648.841 475.254 648.77 475.067C642.232 478.478 635.049 480.815 627.994 479.737C627.229 479.617 626.447 479.65 625.694 479.833C624.942 480.015 624.232 480.345 623.607 480.803C622.982 481.26 622.454 481.837 622.052 482.499C621.65 483.162 621.383 483.897 621.266 484.663C621.149 485.428 621.185 486.21 621.37 486.962C621.556 487.714 621.888 488.422 622.348 489.045C622.808 489.669 623.387 490.195 624.051 490.594C624.715 490.994 625.451 491.258 626.217 491.372C627.998 491.641 629.796 491.775 631.597 491.772C640.136 491.772 648.187 488.782 655.324 484.909C652.616 482.265 650.461 479.109 648.983 475.625Z" fill="url(#paint3_linear_39_19)"/>
<path d="M610.7 448.09C607.272 447.154 604.013 445.683 601.043 443.733C599.733 442.884 598.139 442.591 596.613 442.917C595.086 443.243 593.752 444.163 592.903 445.473C592.054 446.783 591.761 448.377 592.087 449.903C592.413 451.43 593.333 452.764 594.643 453.613C598.824 456.355 603.427 458.392 608.268 459.644C608.726 455.727 609.54 451.86 610.7 448.09Z" fill="url(#paint4_linear_39_19)"/>
<path d="M649.408 440.757C648.528 439.468 647.172 438.582 645.638 438.292C644.105 438.003 642.519 438.334 641.23 439.214C637.506 441.782 633.628 444.119 629.619 446.214C627.516 447.304 625.271 448.093 622.949 448.558C621.506 452.516 620.517 456.624 620 460.805C625.247 460.506 630.371 459.096 635.033 456.669C639.465 454.355 643.752 451.772 647.869 448.935C648.507 448.499 649.053 447.942 649.476 447.295C649.898 446.648 650.189 445.924 650.332 445.165C650.475 444.405 650.467 443.625 650.309 442.869C650.15 442.113 649.844 441.395 649.408 440.757Z" fill="url(#paint5_linear_39_19)"/>
<defs>
<linearGradient id="paint0_linear_39_19" x1="541.473" y1="436" x2="755.527" y2="436" gradientUnits="userSpaceOnUse">
<stop stop-color="#F9E360"/>
<stop offset="0.55" stop-color="#F09D4B"/>
<stop offset="1" stop-color="#DE4030"/>
</linearGradient>
<linearGradient id="paint1_linear_39_19" x1="580.5" y1="433.344" x2="714.5" y2="433.344" gradientUnits="userSpaceOnUse">
<stop stop-color="#F9E360"/>
<stop offset="0.55" stop-color="#F09D4B"/>
<stop offset="1" stop-color="#DE4030"/>
</linearGradient>
<linearGradient id="paint2_linear_39_19" x1="651.109" y1="481.551" x2="675.948" y2="463.116" gradientUnits="userSpaceOnUse">
<stop/>
<stop offset="1" stop-opacity="0"/>
</linearGradient>
<linearGradient id="paint3_linear_39_19" x1="655.036" y1="480.634" x2="631.264" y2="485.679" gradientUnits="userSpaceOnUse">
<stop/>
<stop offset="1" stop-opacity="0"/>
</linearGradient>
<linearGradient id="paint4_linear_39_19" x1="613.519" y1="457.257" x2="598.442" y2="448.388" gradientUnits="userSpaceOnUse">
<stop/>
<stop offset="1" stop-opacity="0"/>
</linearGradient>
<linearGradient id="paint5_linear_39_19" x1="607.842" y1="459.508" x2="651.103" y2="443.052" gradientUnits="userSpaceOnUse">
<stop/>
<stop offset="1" stop-opacity="0"/>
</linearGradient>
</defs>
</svg>
