<svg xmlns="http://www.w3.org/2000/svg" xmlns:xlink="http://www.w3.org/1999/xlink" viewBox="0 0 376 428.125"><defs><style>.cls-1{fill:none;stroke:#fff;stroke-width:0.25px;}.cls-1,.cls-2{stroke-miterlimit:10;}.cls-2{fill:#001;stroke-width:1.054px;stroke:url(#Nepojmenovaný_přechod_2);}.cls-3{fill:url(#Nepojmenovaný_přechod_2-2);}.cls-4{fill:url(#linear-gradient);}.cls-5{fill:url(#linear-gradient-2);}.cls-6{fill:url(#linear-gradient-3);}.cls-7{fill:url(#linear-gradient-4);}</style><linearGradient id="Nepojmenovaný_přechod_2" x1="89.473" y1="236.125" x2="303.527" y2="236.125" gradientUnits="userSpaceOnUse"><stop offset="0" stop-color="#f9e360"/><stop offset="0.55" stop-color="#f09d4b"/><stop offset="1" stop-color="#de4030"/></linearGradient><linearGradient id="Nepojmenovaný_přechod_2-2" x1="128.5" y1="233.469" x2="262.5" y2="233.469" xlink:href="#Nepojmenovaný_přechod_2"/><linearGradient id="linear-gradient" x1="199.109" y1="281.676" x2="223.948" y2="263.241" gradientUnits="userSpaceOnUse"><stop offset="0"/><stop offset="1" stop-opacity="0"/></linearGradient><linearGradient id="linear-gradient-2" x1="203.036" y1="280.759" x2="179.264" y2="285.804" xlink:href="#linear-gradient"/><linearGradient id="linear-gradient-3" x1="161.519" y1="257.382" x2="146.442" y2="248.513" xlink:href="#linear-gradient"/><linearGradient id="linear-gradient-4" x1="155.842" y1="259.633" x2="199.103" y2="243.177" xlink:href="#linear-gradient"/></defs><g id="Layer_2" data-name="Layer 2"><g id="Layer_1-2" data-name="Layer 1"><path class="cls-1" d="M65.431.125h44.138A41.931,41.931,0,0,1,151.5,42.056V252.125"/><path class="cls-1" d="M311.5.125H267.361a41.931,41.931,0,0,0-41.93,41.931V292.125"/><line class="cls-1" y1="239.625" x2="376" y2="239.625"/><line class="cls-1" x1="177.5" y1="428.125" x2="177.5" y2="286.125"/><circle class="cls-2" cx="196.5" cy="236.125" r="106.5"/><path class="cls-3" d="M224.387,292.735a41.448,41.448,0,0,1-8.786-.931,25.21,25.21,0,0,1-12.285-6.716c-8.618,4.672-18.567,8.053-29.1,6.446-7.911-1.209-16.814-6.982-18.077-19.562a57.129,57.129,0,0,1,.1-12.216,46.561,46.561,0,0,1-13.571-5.965c-11.73-7.486-16.5-22.329-13.077-40.722,2.434-13.094,16.046-31.826,30.62-37.3,7.372-2.767,14.512-1.855,20.1,2.566a16.54,16.54,0,0,1,6.656,12.123c.549,9.022-6.325,16.711-8.445,18.853-7.124,7.2-15.649,9.875-26.072,8.19a5.923,5.923,0,1,1,1.894-11.693c6.628,1.076,11.346-.37,15.759-4.829,2.135-2.158,5.239-6.547,5.041-9.8-.055-.895-.352-2.107-2.178-3.551-1.471-1.162-3.961-2.508-8.6-.768-10.161,3.814-21.4,19.042-23.137,28.371-2.492,13.4.353,23.817,7.8,28.572a34.619,34.619,0,0,0,9.651,4.324c2.9-9.483,8.023-19.3,15.434-29.591,7.493-10.409,17.963-22.731,32.539-25.631a18.723,18.723,0,0,1,22.252,14.066c1.757,8.559-2.606,18.878-10.613,25.1q-2.776,2.156-5.493,4.308c-9.173,7.23-18.659,14.707-29.757,20.451a36.962,36.962,0,0,1-15.019,4.109,45.166,45.166,0,0,0-.107,9.853c.692,6.893,5.359,8.619,8.079,9.035,7.035,1.074,14.195-1.248,20.717-4.645-4.191-11.079,2.16-24.533,9.969-32.471,4.185-4.256,11.193-11.38,21.249-9.027a13.54,13.54,0,0,1,8.746,6.858,15.5,15.5,0,0,1,1.26,12.328c-3.974,11.544-15,19.262-23.865,25.463l-.195.137a12.915,12.915,0,0,0,4.234,1.76,30.255,30.255,0,0,0,24.908-5.612,19.274,19.274,0,0,0,7.633-15.2,5.923,5.923,0,0,1,11.845,0,31.019,31.019,0,0,1-12.043,24.425A41.953,41.953,0,0,1,224.387,292.735Zm-.335-47.661c-2.3,0-4.707,1.655-8.923,5.941-4.638,4.716-8.381,12.062-7.861,17.623l.016-.011c7.456-5.218,16.736-11.712,19.456-19.613a3.78,3.78,0,0,0-.425-2.743,2.058,2.058,0,0,0-1.075-1.055A5.2,5.2,0,0,0,224.052,245.074Zm-13.437-40.717a8.416,8.416,0,0,0-1.647.168c-10.638,2.117-19.5,12.961-25.237,20.934a95.658,95.658,0,0,0-12.724,23.163,24.931,24.931,0,0,0,6.595-2.315c10.1-5.224,18.729-12.028,27.868-19.233q2.758-2.172,5.562-4.361c4.361-3.386,7.117-9.253,6.274-13.357A6.88,6.88,0,0,0,210.615,204.357Z"/><path class="cls-4" d="M229.632,257.2a5.885,5.885,0,0,0-8.319.228c-4,4.228-9.317,7.948-14.007,11.23l-.065.045a8.856,8.856,0,0,0,.611,2.533,16.189,16.189,0,0,0,5.963,7.23l.239-.165c5.148-3.6,10.984-7.687,15.806-12.782A5.885,5.885,0,0,0,229.632,257.2Z"/><path class="cls-5" d="M196.983,275.75c-.076-.184-.142-.371-.213-.558-6.538,3.411-13.721,5.748-20.776,4.67a5.885,5.885,0,1,0-1.777,11.635,35.682,35.682,0,0,0,5.38.4c8.539,0,16.59-2.99,23.727-6.863A28.564,28.564,0,0,1,196.983,275.75Z"/><path class="cls-6" d="M158.7,248.215a33.844,33.844,0,0,1-9.657-4.357,5.885,5.885,0,0,0-6.4,9.88,45.74,45.74,0,0,0,13.625,6.031A65,65,0,0,1,158.7,248.215Z"/><path class="cls-7" d="M197.408,240.882a5.886,5.886,0,0,0-8.178-1.543,111.086,111.086,0,0,1-11.611,7,25.3,25.3,0,0,1-6.67,2.344A55.71,55.71,0,0,0,168,260.93a37.136,37.136,0,0,0,15.033-4.136,122.529,122.529,0,0,0,12.836-7.734A5.884,5.884,0,0,0,197.408,240.882Z"/></g></g></svg>