<svg xmlns="http://www.w3.org/2000/svg" viewBox="0 0 15.831 15.757"><defs><style>.cls-1{fill:#ff6500;}</style></defs><g id="Layer_2" data-name="Layer 2"><g id="Layer_1-2" data-name="Layer 1"><path class="cls-1" d="M.781,1.619.8,1.6a9.143,9.143,0,0,0,.7-.683L1.59.835c.131-.135.251-.26.39-.389a1.325,1.325,0,0,1,2,.019L6.032,2.516a1.331,1.331,0,0,1,.456.967,1.4,1.4,0,0,1-.455.985L4.757,5.743a.232.232,0,0,0-.082.146.2.2,0,0,0,.025.09c0,.009.01.016.015.025.074.125.145.261.215.4a4.062,4.062,0,0,0,.221.4A12.972,12.972,0,0,0,8.036,9.98l.008.011a7.718,7.718,0,0,0,1.794,1.1l.005,0c.127.041.157.041.246-.047l.007-.007c.286-.32.575-.611.92-.947.071-.075.145-.148.219-.222l.1-.1a1.3,1.3,0,0,1,2,0l1.013,1.012c.061.062.125.121.186.185l.175.168c.258.251.472.463.683.687l0,0a1.365,1.365,0,0,1,.435.967,1.43,1.43,0,0,1-.426.973l-.013.015L14.12,15.055a2.333,2.333,0,0,1-1.48.687,5.833,5.833,0,0,1-2.591-.455A15.752,15.752,0,0,1,5.4,12.5,17.122,17.122,0,0,1,.935,6.8,8.6,8.6,0,0,1,0,3.665c0-.067,0-.141,0-.206A2.4,2.4,0,0,1,.781,1.619ZM14.639,12.8a.306.306,0,0,0-.09-.129l-.01-.009-.011-.011c-.2-.21-.4-.412-.648-.653-.059-.058-.12-.116-.179-.175s-.122-.119-.189-.185l-1.018-1.019a.849.849,0,0,0-.15-.122.487.487,0,0,0-.165.122l-.106.107c-.069.069-.139.138-.206.206a.044.044,0,0,1-.013.014c-.333.325-.611.6-.881.906a.779.779,0,0,1-.068.07,1.348,1.348,0,0,1-1.43.311l-.033-.012A.19.19,0,0,1,9.4,12.2,8.7,8.7,0,0,1,7.3,10.915c-.007,0-.012-.011-.02-.018A14.217,14.217,0,0,1,4.143,7.451a5.861,5.861,0,0,1-.282-.516c-.06-.121-.117-.233-.169-.318l-.014-.023c-.014-.027-.029-.051-.037-.069A1.355,1.355,0,0,1,3.915,4.9L5.191,3.625A.615.615,0,0,0,5.3,3.49a.3.3,0,0,0-.079-.1.171.171,0,0,0-.02-.018L3.133,1.3c-.1-.1-.155-.112-.157-.112a.4.4,0,0,0-.159.107c-.014.014-.028.026-.043.039-.11.1-.216.213-.329.329l-.078.081a10.478,10.478,0,0,1-.78.753,1.207,1.207,0,0,0-.4.96c0,.041,0,.089,0,.132a7.523,7.523,0,0,0,.813,2.69,15.968,15.968,0,0,0,4.156,5.3,14.591,14.591,0,0,0,4.3,2.587,4.744,4.744,0,0,0,2.076.381,1.1,1.1,0,0,0,.736-.34l1.266-1.264A.364.364,0,0,0,14.639,12.8Z"/></g></g></svg>